# xmcd
#
# Track frame offsets:
#	150
#	16874
#	31906
#	43686
#	57063
#	71895
#	87774
#	100199
#	115621
#	126143
#	143520
#	158249
#	174546
#	185938
#	202540
#	219900
#	234314
#	245236
#	255348
#	272653
#	284740
#	300659
#	311434
#	320786
#	332968
#
# Disc length: 4575 seconds
#
# Revision: 0
# Processed by: cddbd v1.5.2PL0 Copyright (c) Steve Scherf et al.
# Submitted via: EZCDAudioConverter 1.2.0.1
#
DISCID=6211dd19
DTITLE=Manfred Mann - Groovin' With The Manfreds
DYEAR=1900
DGENRE=R and B
TTITLE0=Groovin'
TTITLE1=Can't Believe It
TTITLE2=What You Gonna Do ?
TTITLE3=Don't Ask Me What I Say
TTITLE4=Hoochie Koochie Man
TTITLE5=Smokestack Lightning
TTITLE6=I'm Your Kingpin
TTITLE7=Bring It To Jerome
TTITLE8=Without You
TTITLE9=Let's Go Get Stoned
TTITLE10=Watermelon Man
TTITLE11=I Put A Spell On You
TTITLE12=Driva Man
TTITLE13=Call It Stormy Monday
TTITLE14=What Did I Do Wrong
TTITLE15=I've Got My Mojo Working
TTITLE16=Down The Road Apiece
TTITLE17=Watch Your Step
TTITLE18=LSD
TTITLE19=One In The middle
TTITLE20=Did You Have To Do That
TTITLE21=Sticks And Stones
TTITLE22=Cock - A - Hoop
TTITLE23=The Way You Do The Things You Do
TTITLE24=You've Got To Take It
EXTD=
EXTT0=
EXTT1=
EXTT2=
EXTT3=
EXTT4=
EXTT5=
EXTT6=
EXTT7=
EXTT8=
EXTT9=
EXTT10=
EXTT11=
EXTT12=
EXTT13=
EXTT14=
EXTT15=
EXTT16=
EXTT17=
EXTT18=
EXTT19=
EXTT20=
EXTT21=
EXTT22=
EXTT23=
EXTT24=
PLAYORDER=
